REM DIRINDEX 1\4,1\2\5,1\2\6,1\3\7,1\3\8
REM DIRNAME cjc124,folder01,folder02,folder03,folder04,folder05,folder06,folder07
TITLE ""
FILE "112_Day56_Check3_Sentences.mp3" MP3
  TRACK 01 AUDIO
    TITLE "0:"
    INDEX 01 00:00:00
  TRACK 02 AUDIO
    TITLE "4:cjc124_3698"
    INDEX 01 00:00:25
  TRACK 03 AUDIO
    TITLE "0:"
    INDEX 01 00:02:00
  TRACK 04 AUDIO
    TITLE "7:cjc124_3699"
    INDEX 01 00:02:47
  TRACK 05 AUDIO
    TITLE "0:"
    INDEX 01 00:06:45
  TRACK 06 AUDIO
    TITLE "8:cjc124_3700"
    INDEX 01 00:06:57
  TRACK 07 AUDIO
    TITLE "0:"
    INDEX 01 00:10:00
  TRACK 08 AUDIO
    TITLE "7:cjc124_3701"
    INDEX 01 00:10:43
  TRACK 09 AUDIO
    TITLE "0:"
    INDEX 01 00:14:23
  TRACK 10 AUDIO
    TITLE "8:cjc124_3702"
    INDEX 01 00:14:49
  TRACK 11 AUDIO
    TITLE "0:"
    INDEX 01 00:16:73
  TRACK 12 AUDIO
    TITLE "7:cjc124_3703"
    INDEX 01 00:17:31
  TRACK 13 AUDIO
    TITLE "0:"
    INDEX 01 00:20:04
  TRACK 14 AUDIO
    TITLE "8:cjc124_3704"
    INDEX 01 00:20:18
  TRACK 15 AUDIO
    TITLE "0:"
    INDEX 01 00:23:03
  TRACK 16 AUDIO
    TITLE "7:cjc124_3705"
    INDEX 01 00:23:38
  TRACK 17 AUDIO
    TITLE "0:"
    INDEX 01 00:25:70
  TRACK 18 AUDIO
    TITLE "8:cjc124_3706"
    INDEX 01 00:26:09
  TRACK 19 AUDIO
    TITLE "0:"
    INDEX 01 00:28:02
  TRACK 20 AUDIO
    TITLE "7:cjc124_3707"
    INDEX 01 00:28:41
  TRACK 21 AUDIO
    TITLE "0:"
    INDEX 01 00:31:43
  TRACK 22 AUDIO
    TITLE "8:cjc124_3708"
    INDEX 01 00:31:61
  TRACK 23 AUDIO
    TITLE "0:"
    INDEX 01 00:34:32
  TRACK 24 AUDIO
    TITLE "7:cjc124_3709"
    INDEX 01 00:34:73
  TRACK 25 AUDIO
    TITLE "0:"
    INDEX 01 00:37:32
  TRACK 26 AUDIO
    TITLE "8:cjc124_3710"
    INDEX 01 00:37:48
  TRACK 27 AUDIO
    TITLE "0:"
    INDEX 01 00:40:01
  TRACK 28 AUDIO
    TITLE "7:cjc124_3711"
    INDEX 01 00:40:36
  TRACK 29 AUDIO
    TITLE "0:"
    INDEX 01 00:43:11
  TRACK 30 AUDIO
    TITLE "8:cjc124_3712"
    INDEX 01 00:43:27
  TRACK 31 AUDIO
    TITLE "0:"
    INDEX 01 00:45:73
  TRACK 32 AUDIO
    TITLE "7:cjc124_3713"
    INDEX 01 00:46:35
  TRACK 33 AUDIO
    TITLE "0:"
    INDEX 01 00:49:10
  TRACK 34 AUDIO
    TITLE "8:cjc124_3714"
    INDEX 01 00:49:27
  TRACK 35 AUDIO
    TITLE "0:"
    INDEX 01 00:51:40
  TRACK 36 AUDIO
    TITLE "7:cjc124_3715"
    INDEX 01 00:52:00
  TRACK 37 AUDIO
    TITLE "0:"
    INDEX 01 00:54:09
  TRACK 38 AUDIO
    TITLE "8:cjc124_3716"
    INDEX 01 00:54:25
  TRACK 39 AUDIO
    TITLE "0:"
    INDEX 01 00:56:59
  TRACK 40 AUDIO
    TITLE "7:cjc124_3717"
    INDEX 01 00:57:21
  TRACK 41 AUDIO
    TITLE "0:"
    INDEX 01 00:59:57
  TRACK 42 AUDIO
    TITLE "8:cjc124_3718"
    INDEX 01 00:59:71
  TRACK 43 AUDIO
    TITLE "0:"
    INDEX 01 01:02:10
  TRACK 44 AUDIO
    TITLE "7:cjc124_3719"
    INDEX 01 01:02:48
  TRACK 45 AUDIO
    TITLE "0:"
    INDEX 01 01:05:46
  TRACK 46 AUDIO
    TITLE "8:cjc124_3720"
    INDEX 01 01:05:60
  TRACK 47 AUDIO
    TITLE "0:"
    INDEX 01 01:08:01
  TRACK 48 AUDIO
    TITLE "7:cjc124_3721"
    INDEX 01 01:08:38
  TRACK 49 AUDIO
    TITLE "0:"
    INDEX 01 01:11:19
  TRACK 50 AUDIO
    TITLE "8:cjc124_3722"
    INDEX 01 01:11:31
  TRACK 51 AUDIO
    TITLE "0:"
    INDEX 01 01:13:63
  TRACK 52 AUDIO
    TITLE "7:cjc124_3723"
    INDEX 01 01:14:23
  TRACK 53 AUDIO
    TITLE "0:"
    INDEX 01 01:18:39
  TRACK 54 AUDIO
    TITLE "8:cjc124_3724"
    INDEX 01 01:18:51
  TRACK 55 AUDIO
    TITLE "0:"
    INDEX 01 01:21:47
  TRACK 56 AUDIO
    TITLE "7:cjc124_3725"
    INDEX 01 01:22:07
  TRACK 57 AUDIO
    TITLE "0:"
    INDEX 01 01:26:48
  TRACK 58 AUDIO
    TITLE "8:cjc124_3726"
    INDEX 01 01:26:74
  TRACK 59 AUDIO
    TITLE "0:"
    INDEX 01 01:31:16
  TRACK 60 AUDIO
    TITLE "7:cjc124_3727"
    INDEX 01 01:31:53
  TRACK 61 AUDIO
    TITLE "0:"
    INDEX 01 01:34:36
  TRACK 62 AUDIO
    TITLE "8:cjc124_3728"
    INDEX 01 01:34:52
  TRACK 63 AUDIO
    TITLE "0:"
    INDEX 01 01:37:36
  TRACK 64 AUDIO
    TITLE "7:cjc124_3729"
    INDEX 01 01:37:71
  TRACK 65 AUDIO
    TITLE "0:"
    INDEX 01 01:41:03
  TRACK 66 AUDIO
    TITLE "8:cjc124_3730"
    INDEX 01 01:41:20
  TRACK 67 AUDIO
    TITLE "0:"
    INDEX 01 01:43:74
